<?xml version="1.0" encoding="UTF-8" standalone="no"?>
<!-- Created with Inkscape (http://www.inkscape.org/) -->

<svg
   xmlns:dc="http://purl.org/dc/elements/1.1/"
   xmlns:cc="http://creativecommons.org/ns#"
   xmlns:rdf="http://www.w3.org/1999/02/22-rdf-syntax-ns#"
   xmlns:svg="http://www.w3.org/2000/svg"
   xmlns="http://www.w3.org/2000/svg"
   xmlns:sodipodi="http://sodipodi.sourceforge.net/DTD/sodipodi-0.dtd"
   xmlns:inkscape="http://www.inkscape.org/namespaces/inkscape"
   width="52.676777mm"
   height="65.823746mm"
   viewBox="0 0 186.65 233.23374"
   id="svg2"
   version="1.1"
   inkscape:version="0.92.1 r15371"
   sodipodi:docname="NYPD 1.svg">
  <defs
     id="defs4">
    <clipPath
       id="clipPath3350"
       clipPathUnits="userSpaceOnUse">
      <path
         inkscape:connector-curvature="0"
         id="path3352"
         d="M 0,198 162,198 162,0 0,0 0,198 Z" />
    </clipPath>
  </defs>
  <sodipodi:namedview
     id="base"
     pagecolor="#ffffff"
     bordercolor="#666666"
     borderopacity="1.0"
     inkscape:pageopacity="0.0"
     inkscape:pageshadow="2"
     inkscape:zoom="2.512233"
     inkscape:cx="99.546664"
     inkscape:cy="124.39133"
     inkscape:document-units="px"
     inkscape:current-layer="layer1"
     showgrid="false"
     fit-margin-top="0"
     fit-margin-left="0"
     fit-margin-right="0"
     fit-margin-bottom="0"
     inkscape:window-width="1600"
     inkscape:window-height="838"
     inkscape:window-x="-8"
     inkscape:window-y="-8"
     inkscape:window-maximized="1" />
  <metadata
     id="metadata7">
    <rdf:RDF>
      <cc:Work
         rdf:about="">
        <dc:format>image/svg+xml</dc:format>
        <dc:type
           rdf:resource="http://purl.org/dc/dcmitype/StillImage" />
        <dc:title />
      </cc:Work>
    </rdf:RDF>
  </metadata>
  <g
     inkscape:label="Layer 1"
     inkscape:groupmode="layer"
     id="layer1"
     transform="translate(-255.24643,-315.74533)">
    <g
       transform="matrix(1.25,0,0,-1.25,246.50068,555.12658)"
       inkscape:label="new_york_city_police_department"
       id="g3344">
      <g
         id="g3346">
        <g
           clip-path="url(#clipPath3350)"
           id="g3348">
          <g
             transform="translate(91.0186,11.502)"
             id="g3354">
            <path
               inkscape:connector-curvature="0"
               id="path3356"
               style="fill:#f9ab22;fill-opacity:1;fill-rule:nonzero;stroke:none"
               d="m 0,0 c 5,3.859 10.032,7.851 14.722,12.211 4.191,3.873 12.133,12.766 12.584,13.239 2.529,3.006 4.857,6.112 7.215,9.28 5.267,7.593 10.492,15.458 14.368,23.729 2.438,4.213 3.864,8.846 5.831,13.25 1.533,4.097 2.933,8.19 4.232,12.383 2.039,7.632 3.807,15.394 4.832,23.377 0.389,2.494 0.541,5.086 0.93,7.613 0.565,5.623 0.459,11.166 0.584,16.88 -0.027,5.073 -0.563,10.206 -0.86,15.375 -0.251,4.265 -0.732,8.44 -1.245,12.851 -0.149,1.567 -0.438,3.707 -0.653,5.318 -1.523,0.608 -2.298,0.947 -4.48,1.843 -7.168,2.593 -32.112,12.654 -67.42,12.654 -35.308,0 -60.235,-10.039 -67.422,-12.654 -1.795,-0.695 -2.806,-1.135 -4.534,-1.819 -0.257,-2.318 -0.353,-3.36 -0.595,-5.27 -0.45,-4.376 -0.997,-8.658 -1.248,-12.923 -0.299,-5.169 -0.834,-10.302 -0.863,-15.375 0.127,-5.714 0.02,-11.257 0.586,-16.88 0.388,-2.527 0.54,-5.119 0.93,-7.613 1.024,-7.983 2.792,-15.745 4.831,-23.377 1.299,-4.193 2.699,-8.286 4.233,-12.383 1.967,-4.404 3.392,-9.037 5.831,-13.25 3.874,-8.271 9.101,-16.136 14.367,-23.729 2.359,-3.168 4.685,-6.274 7.216,-9.28 0.427,-0.497 8.392,-9.366 12.584,-13.239 4.691,-4.36 9.721,-8.352 14.722,-12.211 1.428,-0.902 9.343,-6.584 9.343,-6.584 0,0 7.95,5.682 9.379,6.584" />
          </g>
          <g
             transform="translate(90.4922,16.4102)"
             id="g3358">
            <path
               inkscape:connector-curvature="0"
               id="path3360"
               style="fill:#00003c;fill-opacity:1;fill-rule:nonzero;stroke:none"
               d="m 0,0 c 4.717,3.64 9.464,7.406 13.889,11.52 3.954,3.654 11.446,12.043 11.871,12.49 2.386,2.836 4.582,5.764 6.806,8.754 4.97,7.164 9.899,14.584 13.555,22.384 2.301,3.976 3.645,8.346 5.501,12.502 1.446,3.864 2.769,7.726 3.993,11.681 1.924,7.2 3.591,14.523 4.559,22.054 0.366,2.353 0.51,4.798 0.876,7.182 0.534,5.305 0.434,10.534 0.552,15.925 -0.026,4.786 -0.532,9.628 -0.811,14.504 -0.238,4.024 -0.691,7.963 -1.175,12.124 -0.141,1.478 -0.414,3.497 -0.616,5.017 -1.437,0.574 -2.168,0.893 -4.227,1.738 -6.761,2.447 -30.294,11.938 -63.603,11.938 -33.31,0 -56.826,-9.47 -63.606,-11.938 -1.693,-0.655 -2.647,-1.07 -4.277,-1.715 -0.242,-2.187 -0.333,-3.17 -0.561,-4.972 -0.425,-4.129 -0.941,-8.168 -1.178,-12.192 -0.282,-4.876 -0.787,-9.718 -0.814,-14.504 0.12,-5.391 0.019,-10.62 0.553,-15.925 0.366,-2.384 0.509,-4.829 0.877,-7.182 0.966,-7.531 2.634,-14.854 4.558,-22.054 1.225,-3.955 2.546,-7.817 3.993,-11.681 1.856,-4.156 3.2,-8.526 5.501,-12.502 3.655,-7.8 8.586,-15.22 13.554,-22.384 2.225,-2.99 4.42,-5.918 6.807,-8.754 0.403,-0.469 7.917,-8.836 11.872,-12.49 4.425,-4.114 9.171,-7.88 13.889,-11.52 1.347,-0.852 8.814,-6.212 8.814,-6.212 0,0 7.5,5.36 8.848,6.212" />
          </g>
          <g
             transform="translate(71.3643,142.0664)"
             id="g3362">
            <path
               inkscape:connector-curvature="0"
               id="path3364"
               style="fill:#f9ab22;fill-opacity:1;fill-rule:nonzero;stroke:none"
               d="m 0,0 c -0.424,-0.031 -3.615,-0.289 -9.858,-1.5 -3.562,-0.745 -7.219,-1.509 -10.726,-2.648 -6.629,-1.973 -13.067,-4.73 -18.492,-7.168 l -1.202,-0.54 0.58,-5.26 c 0.298,-2.902 0.607,-5.9 1.257,-8.832 1.265,-7.765 3.453,-15.985 6.689,-25.128 l 0.01,-0.028 1.225,-3.132 c 1.15,-2.987 2.338,-6.075 3.959,-9.007 l -0.026,0.05 c 2.894,-5.647 6.045,-11.639 9.928,-17.346 l 0.023,-0.033 c 5.564,-7.81 11.317,-15.884 18.916,-22.72 l -0.066,0.063 c 2.234,-2.223 6.661,-6.265 6.849,-6.436 l 1.293,-1.18 1.224,1.252 c 1.15,1.178 2.372,2.279 3.555,3.343 1.066,0.96 2.17,1.953 3.242,3.021 l -0.067,-0.063 c 7.6,6.835 13.354,14.91 18.916,22.72 l 0.024,0.033 c 3.883,5.705 7.033,11.697 9.93,17.346 l -0.028,-0.05 c 1.619,2.932 2.809,6.02 3.958,9.007 l 1.218,3.113 0.018,0.047 c 3.235,9.141 5.423,17.361 6.689,25.128 0.65,2.932 0.96,5.931 1.256,8.833 l 0.578,5.23 -1.199,0.569 c -5.424,2.438 -11.861,5.195 -18.492,7.168 -3.509,1.139 -7.164,1.903 -10.702,2.643 l -0.046,0.009 c -5.359,0.969 -9.616,1.47 -9.793,1.491 -0.259,0.03 -6.371,0.738 -10.342,0.697 l 0.02,0 -0.038,0 C 6.421,0.732 0.515,0.06 0,0" />
          </g>
          <g
             transform="translate(74.8589,40.1211)"
             id="g3366">
            <path
               inkscape:connector-curvature="0"
               id="path3368"
               style="fill:#3dc0e8;fill-opacity:1;fill-rule:nonzero;stroke:none"
               d="m 0,0 c -7.382,6.641 -13.019,14.518 -18.653,22.425 -3.763,5.532 -6.836,11.345 -9.814,17.154 -2.104,3.81 -3.457,7.9 -5.072,11.894 -2.837,8.018 -5.215,16.256 -6.611,24.829 -0.93,4.146 -1.141,8.439 -1.678,12.675 5.967,2.682 12.028,5.232 18.304,7.096 3.402,1.105 6.959,1.85 10.517,2.594 6.542,1.269 9.68,1.474 9.68,1.474 0,0 6.212,0.726 10.112,0.685 l 0.038,0 c 3.9,0.041 10.112,-0.685 10.112,-0.685 0,0 4.315,-0.504 9.681,-1.474 3.556,-0.744 7.113,-1.489 10.515,-2.594 6.276,-1.864 12.338,-4.414 18.304,-7.096 C 54.899,84.741 54.688,80.448 53.758,76.302 52.362,67.729 49.985,59.491 47.146,51.473 45.531,47.479 44.179,43.389 42.075,39.579 39.097,33.77 36.024,27.957 32.261,22.425 26.625,14.518 20.991,6.641 13.608,0 11.375,-2.222 9.023,-4.097 6.792,-6.382 6.792,-6.382 2.231,-2.222 0,0" />
          </g>
          <g
             transform="translate(81.6494,138.9019)"
             id="g3370">
            <path
               inkscape:connector-curvature="0"
               id="path3372"
               style="fill:#00003c;fill-opacity:1;fill-rule:nonzero;stroke:none"
               d="m 0,0 c 1.026,-0.93 2.833,-2.202 4.067,-2.965 2.189,-1.329 3.687,-0.948 5.377,-0.642 0.772,0.257 1.205,0.403 2.377,0.932 1.248,-1.641 2.599,-3.702 4.933,-3.583 0.281,0 0.618,-0.658 0.651,-0.976 -0.461,-1.205 -0.653,-2.346 -0.711,-3.727 -0.071,-1.987 0.256,-4.215 2.328,-5.097 1.206,-0.463 2.822,-0.46 3.879,0.229 -0.315,1.117 -0.42,2.703 0.64,3.491 0.58,0.394 1.073,0.37 1.853,0.033 0.871,-0.355 1.325,-1.206 1.511,-2.05 0.539,-3.515 -0.051,-7.985 3.725,-9.675 0.599,-0.28 1.585,0.172 1.945,-0.441 -0.316,-2.419 -0.565,-4.873 0.337,-7.047 1.046,-1.705 2.92,-2.447 4.589,-3.154 0.132,-0.17 0.126,-0.506 -0.01,-0.64 -1.172,-1.223 -2.008,-2.724 -2.04,-4.407 0.032,-1.822 0.441,-3.512 0.812,-5.17 -0.621,-0.829 -1.246,-1.661 -1.633,-2.597 -0.052,-2.73 -0.164,-5.087 -0.718,-7.669 -0.856,-4.262 -2.582,-8.171 -5.845,-11.38 l -0.271,-0.095 c -0.768,0.989 -0.992,1.382 -1.723,2 -0.448,0.281 -1.194,0.449 -1.905,0.259 -0.544,-0.191 -0.96,-0.711 -1.069,-1.212 -0.136,-0.739 0,-1.125 0.841,-1.799 0.498,-0.414 1.534,-0.921 1.534,-0.921 -1.109,-1.564 -2.25,-3.124 -3.525,-4.614 -1.434,-1.652 -3.061,-0.752 -3.061,-0.752 l 0.054,-3.805 -18.919,-0.048 -18.979,0.047 0.056,3.806 c 0,0 -1.628,-0.901 -3.061,0.75 -1.275,1.491 -2.416,3.05 -3.524,4.616 0,0 1.035,0.507 1.532,0.919 0.842,0.676 0.977,1.06 0.842,1.799 -0.111,0.502 -0.526,1.022 -1.069,1.214 -0.711,0.189 -1.457,0.021 -1.906,-0.259 -0.73,-0.62 -0.955,-1.013 -1.723,-2 l -0.271,0.093 c -3.262,3.209 -4.987,7.118 -5.844,11.38 -0.555,2.584 -0.665,4.941 -0.719,7.669 -0.387,0.936 -1.01,1.768 -1.631,2.599 0.371,1.656 0.778,3.348 0.811,5.169 -0.033,1.683 -0.87,3.183 -2.039,4.407 -0.137,0.133 -0.144,0.47 -0.012,0.639 1.67,0.708 3.544,1.45 4.589,3.154 0.903,2.174 0.654,4.628 0.338,7.048 0.359,0.613 1.345,0.161 1.946,0.441 3.775,1.689 3.184,6.159 3.724,9.674 0.186,0.845 0.641,1.696 1.511,2.05 0.78,0.338 1.272,0.361 1.853,-0.033 1.059,-0.788 0.955,-2.374 0.639,-3.491 1.058,-0.688 2.675,-0.691 3.879,-0.228 2.072,0.881 2.4,3.11 2.329,5.097 -0.059,1.381 -0.251,2.521 -0.712,3.727 0.034,0.319 0.37,0.974 0.651,0.974 2.334,-0.117 3.685,1.944 4.934,3.585 1.17,-0.53 1.603,-0.675 2.376,-0.933 1.689,-0.305 3.189,-0.686 5.378,0.642 C -2.846,-2.203 0,0 0,0" />
          </g>
          <g
             transform="translate(81.6494,114.9102)"
             id="g3374">
            <path
               inkscape:connector-curvature="0"
               id="path3376"
               style="fill:#ffffff;fill-opacity:1;fill-rule:nonzero;stroke:none"
               d="m 0,0 c 3.899,-1.463 7.922,-2.765 11.925,-4.06 6.791,-2.328 13.584,-4.658 20.447,-6.783 l 0.065,-0.206 c -0.78,-1.847 -1.452,-3.931 -0.926,-5.937 l 0.263,-0.477 C 20.946,-13.703 10.967,-10.462 0,-6.937 c 0,0 -20.96,-6.767 -31.788,-10.527 l 0.264,0.476 c 0.526,2.006 -0.145,4.092 -0.925,5.938 l 0.064,0.205 c 6.863,2.126 13.656,4.456 20.447,6.784 C -7.936,-2.766 0,0 0,0" />
          </g>
          <g
             transform="translate(85.5078,132.4136)"
             id="g3378">
            <path
               inkscape:connector-curvature="0"
               id="path3380"
               style="fill:#f9ab22;fill-opacity:1;fill-rule:nonzero;stroke:none"
               d="m 0,0 c 3.102,-1.522 6.654,-0.169 6.654,-0.169 0,0 0.773,-0.762 1.073,-1.072 0.619,-0.508 1.07,-0.809 1.691,-0.903 -0.363,-3.005 -0.535,-6.708 2.168,-8.723 1.9,-1.524 3.923,-1.992 5.559,-1.822 1.464,-0.057 2.65,0.677 2.593,0.112 l 0.28,-1.699 c 0.255,-2.441 2.35,-4.513 4.462,-5.534 l 0.165,-2.466 c 0.057,-1.128 0.677,-3.102 0.677,-3.102 l -25.778,8.814 -0.013,11.997 -1.524,0 -0.013,1.451 6.458,0 c 0,0 0.514,-0.395 0.33,-0.844 -0.105,-0.255 -0.8,-0.974 -1.218,-1.643 -0.98,-1.64 -2.061,-3.345 -1.896,-5.38 0.148,-1.051 1.111,-2.084 2.085,-2.475 1.174,-0.53 2.701,-0.29 3.763,0.334 1.263,0.551 1.629,1.931 1.685,3.149 -0.433,2.208 -2.744,5.527 -2.965,6.013 -0.222,0.484 0.591,0.846 0.591,0.846 l 0,1.042 -8.833,-0.012 0.012,1.371 -1.841,0 -0.061,-0.001 -1.84,0 0.012,-1.371 -8.833,0.012 0,-1.043 c 0,0 0.812,-0.361 0.591,-0.846 -0.221,-0.485 -2.533,-3.804 -2.964,-6.013 0.056,-1.217 0.421,-2.598 1.683,-3.148 1.062,-0.624 2.589,-0.865 3.764,-0.334 0.973,0.391 1.936,1.424 2.085,2.476 0.165,2.033 -0.917,3.738 -1.896,5.379 -0.42,0.668 -1.113,1.388 -1.218,1.643 -0.184,0.448 0.33,0.843 0.33,0.843 l 6.458,0 -0.013,-1.45 -1.525,0 -0.013,-11.997 -25.777,-8.814 c 0,0 0.62,1.974 0.677,3.101 l 0.165,2.467 c 2.112,1.021 4.206,3.092 4.463,5.533 l 0.279,1.7 c -0.056,0.564 1.127,-0.17 2.593,-0.112 1.637,-0.17 3.658,0.297 5.559,1.822 2.703,2.014 2.531,5.717 2.168,8.723 0.621,0.094 1.071,0.395 1.692,0.902 0.299,0.311 1.071,1.072 1.071,1.072 0,0 3.553,-1.353 6.655,0.17 1.917,0.846 2.293,1.056 3.872,2.248 0,0 1.941,-1.401 3.858,-2.247" />
          </g>
          <g
             transform="translate(71.8394,127.1943)"
             id="g3382">
            <path
               inkscape:connector-curvature="0"
               id="path3384"
               style="fill:#f9ab22;fill-opacity:1;fill-rule:nonzero;stroke:none"
               d="m 0,0 -0.046,-5.082 c 0,0 -1.554,-0.132 -2.138,0.263 -0.065,0.945 1.065,2.829 1.065,2.829 L 0,0 Z" />
          </g>
          <g
             transform="translate(72.8066,127.1875)"
             id="g3386">
            <path
               inkscape:connector-curvature="0"
               id="path3388"
               style="fill:#f9ab22;fill-opacity:1;fill-rule:nonzero;stroke:none"
               d="m 0,0 0.023,-5.082 c 0,0 1.554,-0.139 2.138,0.253 0.07,0.945 -1.051,2.835 -1.051,2.835 L 0,0 Z" />
          </g>
          <g
             transform="translate(91.4463,127.1953)"
             id="g3390">
            <path
               inkscape:connector-curvature="0"
               id="path3392"
               style="fill:#f9ab22;fill-opacity:1;fill-rule:nonzero;stroke:none"
               d="m 0,0 0.045,-5.082 c 0,0 1.556,-0.132 2.138,0.264 0.066,0.945 -1.065,2.829 -1.065,2.829 L 0,0 Z" />
          </g>
          <g
             transform="translate(90.4785,127.189)"
             id="g3394">
            <path
               inkscape:connector-curvature="0"
               id="path3396"
               style="fill:#f9ab22;fill-opacity:1;fill-rule:nonzero;stroke:none"
               d="m 0,0 -0.021,-5.082 c 0,0 -1.556,-0.14 -2.139,0.254 -0.07,0.944 1.051,2.833 1.051,2.833 L 0,0 Z" />
          </g>
          <g
             transform="translate(112.4111,95.9082)"
             id="g3398">
            <path
               inkscape:connector-curvature="0"
               id="path3400"
               style="fill:#f9ab22;fill-opacity:1;fill-rule:nonzero;stroke:none"
               d="m 0,0 c 0,0 -2.101,-0.13 -2.86,-0.964 -0.76,-0.797 -1.09,-2.121 -0.196,-3.074 1.398,-1.246 3.223,-1.584 2.991,-4.796 -0.655,-4.116 -1,-6.85 -3.434,-10.152 0,0 -2.425,2.254 -5.697,-0.032 -0.507,-0.421 -1.241,-0.929 -1.692,-2.056 l -0.168,-1.185 c 0.207,-2.162 1.071,-2.199 0.932,-2.865 -0.139,-0.665 -0.706,-1.421 -1.258,-2.108 -0.857,-0.594 -1.986,-0.272 -2.909,0.052 -1.333,0.466 -1.899,-0.911 -1.899,-0.911 l 0.003,-2.57 -14.552,0.005 -0.06,-0.001 -14.552,-0.005 0.006,2.57 c 0,0 -0.568,1.376 -1.901,0.912 -0.922,-0.326 -2.051,-0.646 -2.909,-0.054 -0.551,0.687 -1.119,1.443 -1.258,2.109 -0.139,0.666 0.725,0.702 0.932,2.864 l -0.168,1.185 c -0.452,1.127 -1.185,1.635 -1.692,2.058 -3.272,2.286 -5.696,0.029 -5.696,0.029 -2.434,3.305 -2.779,6.037 -3.434,10.154 -0.232,3.211 1.592,3.549 2.989,4.795 0.895,0.954 0.566,2.279 -0.194,3.075 -0.761,0.833 -2.861,0.963 -2.861,0.963 0,0 20.748,6.884 30.77,10.29 L 0,0 Z" />
          </g>
          <g
             transform="translate(95.4004,68.7979)"
             id="g3402">
            <path
               inkscape:connector-curvature="0"
               id="path3404"
               style="fill:#00003c;fill-opacity:1;fill-rule:nonzero;stroke:none"
               d="m 0,0 -0.422,0.085 3.383,17.087 c 0,0 -1.78,1.44 -2.453,1.777 0,0 0,0.169 -0.508,-0.339 -0.508,-0.507 -0.846,-3.382 -0.846,-3.382 L -0.565,12.013 -0.592,10.235 -0.93,-0.846 0.115,-1.403 c 0,0 0.293,-0.243 0.436,-0.561 0.145,-0.32 -0.363,-0.56 -0.363,-0.56 0,0 -1.959,0.306 -2.573,0.388 -0.261,0.123 -0.556,0.342 -0.591,0.694 0.357,1.416 0.017,11.677 0.017,11.677 l -0.256,0 c 0,0 -0.388,-9.038 -0.761,-11.506 -0.133,-1.085 -0.93,-0.843 -2.369,-0.929 -0.491,-0.137 -0.935,-0.225 -1.438,0.086 -0.918,1.196 1.947,1.521 1.947,1.521 l 0.657,13.768 0.103,4.453 c 0,0 0.084,0.305 0,1.236 l -0.846,-1.099 c 0,0 -0.484,-1.121 -0.846,-1.862 0.762,-4.652 0.547,-6.925 0.254,-9.22 -0.59,-4.4 -3.203,-6.465 -5.16,-8.459 l -2.076,-1.668 c -1.018,0.798 -2.103,1.625 -2.103,1.625 -2.105,2.158 -2.841,2.664 -4.11,5.033 -0.1,0.139 -1.016,2.115 -1.184,3.807 -0.339,1.947 -0.508,5.33 -0.339,7.529 0.169,1.013 0.541,2.545 0.507,3.215 -0.422,1.353 -0.586,2.989 -0.762,2.961 -0.569,0.132 -0.335,-2.597 -0.253,-5.838 0.076,-3.015 -0.347,-3.012 0.253,-10.153 0,0 -0.084,-2.198 0.171,-4.65 0.153,-0.51 0.382,-0.783 0.675,-1.102 0.353,-0.245 1.569,-0.352 1.608,-0.929 -0.371,-0.489 -3.255,0.097 -3.808,0.086 -0.527,0.209 -1.183,10.404 -1.183,10.404 0,0 -0.548,1.333 -0.593,-0.084 -0.078,-2.468 0,-6.431 0.593,-8.629 0.254,-0.848 0.112,-1.396 0,-1.353 l -2.706,-1.016 -0.847,0.254 c -0.564,0.724 1.761,1.203 1.632,1.969 -0.195,1.5 -0.447,3.106 -0.864,5.076 -0.069,0.763 -0.175,1.416 -0.261,3.191 0.255,1.776 0.255,2.537 0.255,4.99 0.213,1.253 -0.188,7.114 -0.509,7.107 -0.536,0.074 -1.014,-1.354 -2.198,-1.185 -1.692,0.847 -3.554,3.468 -2.622,0.085 0.76,-4.229 1.353,-6.177 2.785,-11.106 0.215,-0.699 0.691,-1.364 0.469,-2.164 -0.169,-0.358 -0.421,-0.843 -0.858,-0.823 -0.502,0.04 -0.502,-0.002 -0.828,0.457 0,0 -0.317,0.366 -0.274,1.058 0.046,0.694 0.363,1.097 0.363,1.097 -1.236,4.121 -3.518,10.719 -3.518,16.186 0.571,0.62 0.338,1.033 1.183,0.793 1.031,-0.746 0.276,-1.178 0.815,-2.13 0.152,-0.444 2.219,-1.054 2.485,-1.338 0.716,0.655 0.98,1.899 1.431,2.741 0.276,1.03 2.149,0.509 2.545,1.32 -0.219,0.859 -0.606,2.148 -0.678,3.045 -0.094,0.51 -1.421,0.107 -1.421,0.107 0,0 -0.608,0.739 0.068,0.823 0.677,0.084 1.522,0.339 1.522,0.339 l 0.254,1.183 3.555,-0.338 0.083,-1.1 c 0,0 0.338,-0.084 1.1,-0.338 0.76,-0.253 -0.084,-0.676 -0.084,-0.676 l -1.016,0.085 c -0.122,-1.413 -0.357,-2.987 -0.592,-3.046 -0.339,-0.084 1.608,-0.592 2.283,-1.27 1.184,-2.283 1.522,-4.753 1.522,-4.753 1.201,1.89 1.898,4.712 2.805,6.623 -0.259,0.153 -0.623,-0.207 -0.937,-0.12 -1.327,1.092 -2.289,2.312 -3.224,3.934 -0.841,1.253 -1.604,2.439 0.35,4.616 1.352,0.701 2.339,-0.556 3.293,-1.434 0.203,-0.154 0.293,-0.568 0.607,-0.594 0.309,0.295 0.1,0.866 0.148,1.315 0.24,0.965 0.25,2.022 1.063,2.744 0.676,0.461 1.632,0.996 2.382,0.371 0.889,-0.494 1.161,-1.542 1.35,-2.499 -0.411,-0.905 -0.861,0.462 -1.342,0.355 -0.369,-0.01 -0.478,-0.427 -0.527,-0.747 -0.014,-0.898 0.256,-1.724 0.777,-2.258 0.396,0.073 0.563,0.431 0.754,0.785 0.785,0.721 1.764,1.606 2.852,1.053 1.217,-1.254 2.339,-3.131 2.847,-5.329 0.471,-0.983 0.656,-1.67 0.762,-2.853 0,0 0.502,-1.048 -0.732,-0.496 -1.235,0.557 -1.001,0.302 -1.46,0.61 -0.771,0.209 -1.47,1.219 -1.993,1.814 l -0.14,-0.004 -0.105,-0.002 -0.14,-0.002 c -0.587,-0.554 -0.544,-1.515 -0.557,-2.38 0.287,-1.915 0.857,-3.695 1.598,-5.407 l 0.906,-1.517 1.014,2.201 0.847,2.115 c 0,0 0.254,0.93 1.014,1.354 0.474,0.261 0.611,0.345 1.248,0.457 0.049,0.672 0.191,0.895 -0.494,1.908 -0.04,0.864 -0.145,1.952 0.307,2.697 0.17,0.259 0.462,0.33 0.515,0.651 -0.424,1.082 -0.592,2.922 -0.023,3.555 0.568,0.632 1.013,0.747 1.013,0.747 0,0 0.153,-0.862 0.155,-1.172 0.002,-0.308 0.023,-1.631 0.092,-2.238 l 0.144,0.067 0.686,1.654 0.463,1.116 0.255,-1.428 c 0.219,-0.925 -0.117,-1.7 -0.428,-2.346 -0.429,-0.459 0.03,-0.705 0.251,-1.663 0.32,-1.359 -0.483,-2.185 -0.405,-3.498 0.452,-0.002 0.621,0.422 1.551,0.082 0.932,-0.589 1.156,-2.003 1.522,-2.453 0.86,-1.043 1.017,-1.351 1.694,-2.113 l 1.438,8.544 0.592,0 c 0,0 2.537,-2.03 2.875,-8.121 0.121,-2.153 0.17,-2.623 0.17,-2.623 l -0.17,-1.1 c 0,0 0.847,-0.255 0.34,-0.76 C 8.672,15.185 8.289,15.006 8.207,14.465 7.867,12.267 7.106,9.981 7.106,9.981 7.106,9.981 6.515,7.867 4.062,4.146 2.438,1.685 0,0 0,0" />
          </g>
          <g
             transform="translate(81.645,113.8574)"
             id="g3406">
            <path
               inkscape:connector-curvature="0"
               id="path3408"
               style="fill:#00003c;fill-opacity:1;fill-rule:nonzero;stroke:none"
               d="M 0,0 0.73,-1.919 2.781,-2.021 1.182,-3.308 1.718,-5.289 0,-4.165 -1.718,-5.289 -1.181,-3.308 -2.78,-2.021 -0.729,-1.919 0,0 Z" />
          </g>
          <g
             transform="translate(106.8203,106.041)"
             id="g3410">
            <path
               inkscape:connector-curvature="0"
               id="path3412"
               style="fill:#00003c;fill-opacity:1;fill-rule:nonzero;stroke:none"
               d="M 0,0 0.082,-2.052 1.994,-2.799 0.068,-3.512 -0.053,-5.561 -1.324,-3.949 -3.31,-4.47 -2.17,-2.761 -3.278,-1.032 -1.303,-1.588 0,0 Z" />
          </g>
          <g
             transform="translate(56.4844,106.1572)"
             id="g3414">
            <path
               inkscape:connector-curvature="0"
               id="path3416"
               style="fill:#00003c;fill-opacity:1;fill-rule:nonzero;stroke:none"
               d="m 0,0 1.296,-1.592 1.979,0.548 -1.114,-1.725 1.132,-1.712 -1.983,0.528 -1.278,-1.61 -0.114,2.051 -1.923,0.719 1.916,0.741 L 0,0 Z" />
          </g>
          <g
             transform="translate(68.6479,110.168)"
             id="g3418">
            <path
               inkscape:connector-curvature="0"
               id="path3420"
               style="fill:#00003c;fill-opacity:1;fill-rule:nonzero;stroke:none"
               d="M 0,0 1.303,-1.586 3.279,-1.028 2.174,-2.758 3.313,-4.465 1.327,-3.948 0.057,-5.56 -0.065,-3.51 -1.992,-2.8 -0.08,-2.051 0,0 Z" />
          </g>
          <g
             transform="translate(94.6436,110.1104)"
             id="g3422">
            <path
               inkscape:connector-curvature="0"
               id="path3424"
               style="fill:#00003c;fill-opacity:1;fill-rule:nonzero;stroke:none"
               d="m 0,0 0.077,-2.052 1.91,-0.752 -1.927,-0.707 -0.125,-2.051 -1.269,1.616 -1.987,-0.514 1.144,1.705 -1.103,1.731 1.974,-0.56 L 0,0 Z" />
          </g>
          <g
             transform="translate(86.8037,85.4678)"
             id="g3426">
            <path
               inkscape:connector-curvature="0"
               id="path3428"
               style="fill:#f9ab22;fill-opacity:1;fill-rule:nonzero;stroke:none"
               d="m 0,0 c 0.735,-0.995 0.819,-1.69 0.819,-1.69 -1.356,-0.2 -2.148,-0.293 -3.183,-0.047 -1.033,0.242 -2.79,1.559 -2.79,1.559 0,0 -1.824,-1.332 -2.983,-1.548 -0.927,-0.3 -2.419,-0.476 -3.438,-0.414 -0.261,0.062 0.271,1.293 0.891,2.092 1.163,1.342 3.228,2.211 5.493,2.412 C -2.653,2.194 -1.435,1.442 0,0" />
          </g>
          <g
             transform="translate(65.5244,74.9082)"
             id="g3430">
            <path
               inkscape:connector-curvature="0"
               id="path3432"
               style="fill:#f9ab22;fill-opacity:1;fill-rule:nonzero;stroke:none"
               d="M 0,0 C -0.085,-0.195 -0.29,-0.136 -0.407,-0.105 -0.526,0.083 -0.617,0.4 -0.446,0.598 -0.047,1.12 0.112,0.225 0,0" />
          </g>
          <g
             transform="translate(99.5459,87.5781)"
             id="g3434">
            <path
               inkscape:connector-curvature="0"
               id="path3436"
               style="fill:#f9ab22;fill-opacity:1;fill-rule:nonzero;stroke:none"
               d="m 0,0 1.438,7.951 c 0,0 2.284,-2.622 2.2,-9.897 C 3.63,-2.629 0,0 0,0" />
          </g>
          <g
             transform="translate(99.123,85.5469)"
             id="g3438">
            <path
               inkscape:connector-curvature="0"
               id="path3440"
               style="fill:#f9ab22;fill-opacity:1;fill-rule:nonzero;stroke:none"
               d="m 0,0 -3.123,-15.271 c 0,0 5.412,4.3 6.93,13.41 C 3.891,-1.354 0,0 0,0" />
          </g>
          <g
             transform="translate(83.957,82.5713)"
             id="g3442">
            <path
               inkscape:connector-curvature="0"
               id="path3444"
               style="fill:#ffffff;fill-opacity:1;fill-rule:nonzero;stroke:none"
               d="m 0,0 c 1.172,-0.384 2.517,-0.211 3.892,0.006 0.159,-2.777 0.506,-5.183 0,-7.36 -0.392,-2.446 -1.954,-4.609 -4.23,-6.851 -0.736,-0.709 -1.97,-1.485 -1.97,-1.485 0,0 -0.965,0.705 -1.84,1.531 -1.978,2.013 -3.222,3.323 -4.227,6.383 -0.542,1.817 -0.518,4.334 -0.515,7.226 0.747,0.041 1.537,0.006 2.349,0.16 1.205,0.121 3.139,0.625 4.228,1.584 C -1.625,0.722 -0.701,0.229 0,0" />
          </g>
          <g
             transform="translate(78.8545,77.79)"
             id="g3446">
            <path
               inkscape:connector-curvature="0"
               id="path3448"
               style="fill:#00003c;fill-opacity:1;fill-rule:nonzero;stroke:none"
               d="M 0,0 0.931,0.755 1.918,-0.353 2.14,-0.171 -0.921,3.242 -2.071,2.308 0,0 Z" />
          </g>
          <g
             transform="translate(82.3438,76.6367)"
             id="g3450">
            <path
               inkscape:connector-curvature="0"
               id="path3452"
               style="fill:#00003c;fill-opacity:1;fill-rule:nonzero;stroke:none"
               d="m 0,0 c -0.035,-0.383 -0.394,-0.669 -0.805,-0.635 -0.408,0.031 -0.713,0.367 -0.681,0.75 0.033,0.384 0.393,0.666 0.802,0.635 C -0.272,0.718 0.033,0.382 0,0" />
          </g>
          <g
             transform="translate(80.5269,74.083)"
             id="g3454">
            <path
               inkscape:connector-curvature="0"
               id="path3456"
               style="fill:#00003c;fill-opacity:1;fill-rule:nonzero;stroke:none"
               d="M 0,0 -0.791,0.892 0.371,1.831 0.182,2.042 -3.395,-0.877 -2.416,-1.978 0,0 Z" />
          </g>
          <g
             transform="translate(84.375,75.5771)"
             id="g3458">
            <path
               inkscape:connector-curvature="0"
               id="path3460"
               style="fill:#00003c;fill-opacity:1;fill-rule:nonzero;stroke:none"
               d="M 0,0 -0.936,-0.752 -1.916,0.358 -2.138,0.179 0.91,-3.243 2.063,-2.312 0,0 Z" />
          </g>
          <g
             transform="translate(82.7549,79.2695)"
             id="g3462">
            <path
               inkscape:connector-curvature="0"
               id="path3464"
               style="fill:#00003c;fill-opacity:1;fill-rule:nonzero;stroke:none"
               d="m 0,0 0.791,-0.891 -1.16,-0.941 0.191,-0.211 3.57,2.926 L 2.413,1.979 0,0 Z" />
          </g>
          <g
             transform="translate(52.1245,171.1855)"
             id="g3466">
            <path
               inkscape:connector-curvature="0"
               id="path3468"
               style="fill:#ffffff;fill-opacity:1;fill-rule:nonzero;stroke:none"
               d="m 0,0 c 1.331,0.258 1.286,1.689 1.286,1.689 l 0,1.507 c 0,0 0.184,1.359 -1.654,0.919 C -2.141,3.688 -3.857,3.379 -3.857,3.379 l 0,-4.077 c 0,0 2.42,0.419 3.857,0.698 m 4.091,0.073 c 0,0 0.12,-2.54 -3.311,-3.196 -3.462,-0.66 -4.588,-0.844 -4.588,-0.844 l 0,-6.186 -3.134,-0.761 0,16.982 c 0,0 4.224,0.822 8.412,1.573 2.864,0.514 2.621,-2.645 2.621,-2.645 l 0,-4.923 z" />
          </g>
          <g
             transform="translate(49.6274,150.5005)"
             id="g3470">
            <path
               inkscape:connector-curvature="0"
               id="path3472"
               style="fill:#ffffff;fill-opacity:1;fill-rule:nonzero;stroke:none"
               d="m 0,0 c 1.184,0.296 1.259,1.523 1.259,1.523 l 0,1.506 c 0,0 0.221,1.751 -1.597,1.2 C -2.085,3.701 -3.884,3.212 -3.884,3.212 l 0,-4.228 c 0,0 2.464,0.661 3.884,1.016 m 4.233,1.26 c 0,0 -0.072,-3.782 -3.48,-4.55 -3.418,-0.771 -4.588,-1.024 -4.588,-1.024 l 0,-6.007 -3.134,-0.761 0,16.982 c 0,0 4.306,1.105 8.412,2.221 2.49,0.677 2.79,-1.939 2.79,-1.939 l 0,-4.922 z" />
          </g>
          <g
             transform="translate(66.0244,167.7153)"
             id="g3474">
            <path
               inkscape:connector-curvature="0"
               id="path3476"
               style="fill:#ffffff;fill-opacity:1;fill-rule:nonzero;stroke:none"
               d="m 0,0 c 1.05,0.125 0.919,1.649 0.919,1.649 l 0,6.303 c 0,0 0.096,1.777 -0.845,1.756 -1.173,-0.023 -2.14,-0.164 -3.077,-0.234 -1.142,-0.084 -0.96,-2.03 -0.96,-2.03 l 0,-6.006 c 0,0 -0.14,-1.565 1.099,-1.612 C -1.312,-0.234 -1.057,-0.127 0,0 m 4.276,-0.127 c 0,-3.51 -3.049,-3.214 -3.049,-3.214 0,0 -3.125,-0.332 -5.16,-0.462 -2.035,-0.131 -3.296,-0.17 -3.296,2.493 l 0,11.646 c 0,2.438 2.353,2.382 3.296,2.494 0.943,0.113 4.943,0.366 4.943,0.366 0,0 3.266,0.382 3.266,-2.493 l 0,-10.83 z" />
          </g>
          <g
             transform="translate(83.3369,164.8848)"
             id="g3478">
            <path
               inkscape:connector-curvature="0"
               id="path3480"
               style="fill:#ffffff;fill-opacity:1;fill-rule:nonzero;stroke:none"
               d="m 0,0 -10.151,0 0,16.665 3.553,0 0,-13.46 L 0,3.205 0,0 Z" />
          </g>
          <g
             transform="translate(89.666,164.8813)"
             id="g3482">
            <path
               inkscape:connector-curvature="0"
               id="path3484"
               style="fill:#ffffff;fill-opacity:1;fill-rule:nonzero;stroke:none"
               d="m 0,0 -3.851,-0.057 0,16.75 L 0,16.637 0,0 Z" />
          </g>
          <g
             transform="translate(104.0215,165.5518)"
             id="g3486">
            <path
               inkscape:connector-curvature="0"
               id="path3488"
               style="fill:#ffffff;fill-opacity:1;fill-rule:nonzero;stroke:none"
               d="m 0,0 c 0,-2.103 -2.819,-2.081 -2.819,-2.081 0,0 -3.634,0.511 -5.302,0.79 -1.67,0.28 -3.351,0.445 -3.351,3.975 l 0,10.295 c 0,0 -0.28,2.605 3.327,2.31 3.675,-0.3 5.071,-0.394 5.071,-0.394 0,0 3.074,-0.464 3.074,-2.986 l 0,-4.355 -3.414,0.442 0,1.916 c 0,1.511 -1.394,1.663 -1.394,1.663 l -2.073,0.185 c 0,0 -1.41,0.336 -1.41,-1.513 l 0,-6.107 c 0,-1.624 1.356,-1.775 1.356,-1.775 l 2.253,-0.297 c 0,0 1.299,0.055 1.299,1.314 l 0,1.849 L 0,4.896 0,0 Z" />
          </g>
          <g
             transform="translate(118.2422,160.2437)"
             id="g3490">
            <path
               inkscape:connector-curvature="0"
               id="path3492"
               style="fill:#ffffff;fill-opacity:1;fill-rule:nonzero;stroke:none"
               d="m 0,0 -11.363,2.254 0,16.652 L 0,17.12 0,14 l -8.022,1.184 0,-3.524 6.005,-0.931 0,-3.205 -6.005,0.931 0,-3.402 L 0,3.622 0,0 Z" />
          </g>
          <g
             transform="translate(22.9214,134.542)"
             id="g3494">
            <path
               inkscape:connector-curvature="0"
               id="path3496"
               style="fill:#ffffff;fill-opacity:1;fill-rule:nonzero;stroke:none"
               d="m 0,0 c 0.564,0.338 1.241,0.621 1.241,2.144 l 0,6.203 c 0,1.804 0,2.538 -1.128,2.257 -0.62,-0.283 -2.805,-1.312 -2.805,-1.312 l 0,-10.532 c 0,0 2.128,0.902 2.692,1.24 M 4.695,0.609 C 4.695,-1.409 2.478,-2.2 2.478,-2.2 l -8.512,-4.398 0,18.259 8.319,3.511 c 0,0 2.41,0.673 2.41,-2.568 l 0,-11.995 z" />
          </g>
          <g
             transform="translate(40.1899,138.7212)"
             id="g3498">
            <path
               inkscape:connector-curvature="0"
               id="path3500"
               style="fill:#ffffff;fill-opacity:1;fill-rule:nonzero;stroke:none"
               d="m 0,0 -9.982,-3.841 0,17.334 9.982,3.341 0,-3.405 -6.852,-2.436 0,-3.765 6.218,2.112 0,-3.215 -6.26,-2.111 0,-3.427 L 0,3.041 0,0 Z" />
          </g>
          <g
             transform="translate(120.8359,138.8608)"
             id="g3502">
            <path
               inkscape:connector-curvature="0"
               id="path3504"
               style="fill:#ffffff;fill-opacity:1;fill-rule:nonzero;stroke:none"
               d="m 0,0 -9.982,2.87 0,15.988 9.982,-2.495 0,-3.046 -6.852,1.692 0,-3.384 6.218,-1.729 0,-3.214 -6.261,1.729 0,-3.427 L 0,3.039 0,0 Z" />
          </g>
          <g
             transform="translate(62.3452,150.4438)"
             id="g3506">
            <path
               inkscape:connector-curvature="0"
               id="path3508"
               style="fill:#ffffff;fill-opacity:1;fill-rule:nonzero;stroke:none"
               d="m 0,0 c 0,0 -0.903,3.948 -1.016,4.568 -0.112,0.62 -0.361,0.166 -0.361,0.166 L -3.215,-0.677 0,0 Z M 4.962,-5.188 1.466,-5.81 0.676,-2.989 -4.022,-3.881 -4.906,-7.049 -8.798,-8.064 -3.122,9.438 0.564,10.095 4.962,-5.188 Z" />
          </g>
          <g
             transform="translate(76.1621,153.2554)"
             id="g3510">
            <path
               inkscape:connector-curvature="0"
               id="path3512"
               style="fill:#ffffff;fill-opacity:1;fill-rule:nonzero;stroke:none"
               d="m 0,0 c 1.649,0 1.322,1.518 1.322,1.518 l 0,2.452 c 0,1.439 -1.365,1.148 -1.365,1.148 l -3.632,0 L -3.675,0 0,0 Z m 4.906,-7.783 -4.145,0 -2.665,4.991 -1.771,0 0,-4.991 -3.317,0 0,15.523 8.191,0 c 3.368,0 3.275,-2.568 3.275,-2.568 l 0,-6.057 c 0,-1.912 -1.74,-1.645 -2.162,-1.645 -0.51,0 -0.24,-0.352 -0.24,-0.352 l 2.834,-4.901 z" />
          </g>
          <g
             transform="translate(93.1172,158.2764)"
             id="g3514">
            <path
               inkscape:connector-curvature="0"
               id="path3516"
               style="fill:#ffffff;fill-opacity:1;fill-rule:nonzero;stroke:none"
               d="m 0,0 -3.9,0 0,-12.817 -3.489,0 0,12.817 -3.878,0 0,2.733 L 0,2.733 0,0 Z" />
          </g>
          <g
             transform="translate(146.75,141.1885)"
             id="g3518">
            <path
               inkscape:connector-curvature="0"
               id="path3520"
               style="fill:#ffffff;fill-opacity:1;fill-rule:nonzero;stroke:none"
               d="m 0,0 -3.9,2.087 0,-14.366 -3.49,2.078 0,13.873 -3.876,1.918 0,3.496 L 0,3.672 0,0 Z" />
          </g>
          <g
             transform="translate(109.1836,142.2529)"
             id="g3522">
            <path
               inkscape:connector-curvature="0"
               id="path3524"
               style="fill:#ffffff;fill-opacity:1;fill-rule:nonzero;stroke:none"
               d="m 0,0 -3.724,0.944 0,8.446 c 0,0.592 -0.38,-0.042 -0.38,-0.042 0,0 -3.193,-5.869 -3.459,-6.276 -0.263,-0.407 -0.345,0 -0.345,0 l -3.081,5.821 c 0,0 -0.433,0.878 -0.474,0.154 -0.039,-0.714 0,-6.679 0,-6.679 l -3.342,0.471 0,15.771 3.34,-0.38 c 3.494,-7.023 3.422,-7.19 3.666,-7.613 0.233,-0.403 0.402,-0.043 0.402,-0.043 L -3.609,16.72 0,15.909 0,0 Z" />
          </g>
          <g
             transform="translate(133.8682,133.6187)"
             id="g3526">
            <path
               inkscape:connector-curvature="0"
               id="path3528"
               style="fill:#ffffff;fill-opacity:1;fill-rule:nonzero;stroke:none"
               d="M 0,0 -3.341,1.541 -7.739,11.58 c 0,0 -0.451,0.565 -0.49,-0.169 -0.057,-1.069 0,-7.952 0,-7.952 l -3.249,1.129 0,16.579 4.022,-1.293 3.437,-8.801 c 0,0 0.509,-1.184 0.586,0 0.063,0.956 0,7.501 0,7.501 L 0,17.338 0,0 Z" />
          </g>
          <g
             transform="translate(136.418,88.5645)"
             id="g3530">
            <path
               inkscape:connector-curvature="0"
               id="path3532"
               style="fill:#ffffff;fill-opacity:1;fill-rule:nonzero;stroke:none"
               d="m 0,0 c 0,0 0.135,1.02 -0.828,1.357 -1.006,0.358 -3.855,1.338 -3.855,1.338 0,0 -0.977,0.098 -1.293,-0.757 -0.315,-0.859 -0.846,-2.459 -0.846,-2.459 0,0 -0.279,-1.092 0.574,-1.39 0.852,-0.3 3.31,-1.136 3.945,-1.36 1.014,-0.355 1.453,0.812 1.453,0.812 L 0,0 Z M 2.158,3.232 C 3.888,2.586 2.947,0.027 2.947,0.027 L 1.471,-4.275 c 0,0 -0.969,-2.724 -2.655,-2.197 -1.68,0.527 -7.916,2.723 -7.916,2.723 0,0 -1.593,0.872 -0.734,3.364 0.75,2.19 1.435,4.17 1.435,4.17 0,0 0.953,2.684 2.641,2.172 1.685,-0.514 6.185,-2.079 7.916,-2.725" />
          </g>
          <g
             transform="translate(106.0732,34.8906)"
             id="g3534">
            <path
               inkscape:connector-curvature="0"
               id="path3536"
               style="fill:#ffffff;fill-opacity:1;fill-rule:nonzero;stroke:none"
               d="m 0,0 -2.149,-2.463 -6.58,1.316 c 0,0 -0.618,0.052 -0.347,-0.293 0.274,-0.35 4.444,-3.877 4.444,-3.877 l -1.849,-2.108 -8.411,7.347 2.154,2.468 7.235,-1.488 c 0,0 0.707,-0.299 -0.228,0.622 -0.936,0.924 -4.4,3.849 -4.4,3.849 L -8.409,7.345 0,0 Z" />
          </g>
          <g
             transform="translate(112.9346,42.8555)"
             id="g3538">
            <path
               inkscape:connector-curvature="0"
               id="path3540"
               style="fill:#ffffff;fill-opacity:1;fill-rule:nonzero;stroke:none"
               d="m 0,0 -4.842,-5.604 -8.346,7.21 4.844,5.605 1.74,-1.503 -2.942,-3.403 1.423,-1.229 2.543,2.944 1.548,-1.337 -2.544,-2.945 1.83,-1.582 2.94,3.404 L 0,0 Z" />
          </g>
          <g
             transform="translate(115.249,64.3496)"
             id="g3542">
            <path
               inkscape:connector-curvature="0"
               id="path3544"
               style="fill:#ffffff;fill-opacity:1;fill-rule:nonzero;stroke:none"
               d="m 0,0 7.354,-9.878 -1.429,-1.868 c 0,0 -3.625,1.297 -4.289,1.541 -0.662,0.242 -1.624,0.255 -0.733,-0.943 0.896,-1.202 2.768,-3.629 2.768,-3.629 l -1.593,-2.3 -11.82,3.845 2.104,2.483 5.273,-1.439 c 0,0 0.776,-0.345 0.111,0.592 -0.665,0.936 -3.21,4.075 -3.21,4.075 l 1.318,1.673 5.198,-1.386 c 0,0 1.027,-0.43 0.353,0.576 -0.676,1.006 -3.246,4.262 -3.246,4.262 L 0,0 Z" />
          </g>
          <g
             transform="translate(125.1934,84.4541)"
             id="g3546">
            <path
               inkscape:connector-curvature="0"
               id="path3548"
               style="fill:#ffffff;fill-opacity:1;fill-rule:nonzero;stroke:none"
               d="m 0,0 3.941,-6.633 4.309,-2.175 -1.637,-3.241 -4.306,2.176 -7.575,-0.556 1.491,2.95 4.707,0.358 -2.482,4.05 L 0,0 Z" />
          </g>
          <g
             transform="translate(135.4766,101.2617)"
             id="g3550">
            <path
               inkscape:connector-curvature="0"
               id="path3552"
               style="fill:#ffffff;fill-opacity:1;fill-rule:nonzero;stroke:none"
               d="M 0,0 C 0.586,1.978 -1.546,2.512 -2.119,0.667 -2.544,-0.7 -2.921,-1.881 -2.921,-1.881 l 2.12,-0.667 c 0,0 0.216,0.572 0.801,2.548 M 8.635,2.962 7.582,-0.39 2.523,-1.067 1.801,-3.161 6.27,-4.566 5.42,-7.268 -5.791,-3.742 c 0,0 1.352,4.23 2.006,6.385 0.657,2.153 2.484,2.024 2.484,2.024 0,0 1.453,-0.437 2.858,-0.898 C 3.141,3.338 2.068,1.518 2.068,1.518 l 6.567,1.444 z" />
          </g>
          <g
             transform="translate(146.5986,117.7178)"
             id="g3554">
            <path
               inkscape:connector-curvature="0"
               id="path3556"
               style="fill:#ffffff;fill-opacity:1;fill-rule:nonzero;stroke:none"
               d="m 0,0 -0.668,-3.646 c 0,0 -4.463,-2.269 -5.38,-2.761 -0.916,-0.494 -0.476,-0.828 -0.476,-0.828 l 5.029,-0.923 -0.591,-3.232 -11.328,2.077 0.592,3.232 3.322,-0.685 c 0,0 0.843,0.093 -0.274,1.207 -1.12,1.113 -2.573,2.075 -2.573,2.075 l 0.642,3.501 4.069,-3.821 L 0,0 Z" />
          </g>
          <g
             transform="translate(22.7964,97.9473)"
             id="g3558">
            <path
               inkscape:connector-curvature="0"
               id="path3560"
               style="fill:#ffffff;fill-opacity:1;fill-rule:nonzero;stroke:none"
               d="m 0,0 c -1.674,-0.477 -2.527,2.378 -2.527,2.378 0,0 -0.577,1.931 -1.353,4.522 -0.775,2.593 0.803,3.373 0.803,3.373 l 7.776,2.328 c 0,0 1.677,0.455 2.524,-2.378 0.704,-2.352 1.311,-4.385 1.311,-4.385 0,0 0.825,-3.063 -0.76,-3.512 C 6.189,1.875 4.581,1.368 4.581,1.368 L 3.732,4.211 4.773,4.543 c 0,0 0.798,0.327 0.566,1.229 C 5.108,6.674 4.771,7.545 4.515,8.527 4.259,9.51 3.1,9.252 3.1,9.252 L -0.061,8.306 c 0,0 -1.018,-0.482 -0.762,-1.465 C -0.565,5.858 -0.257,5.068 -0.021,4.168 0.211,3.267 1.151,3.37 1.151,3.37 L 2.258,3.682 3.083,0.922 C 3.083,0.922 1.674,0.478 0,0" />
          </g>
          <g
             transform="translate(22.5796,91.7246)"
             id="g3562">
            <path
               inkscape:connector-curvature="0"
               id="path3564"
               style="fill:#ffffff;fill-opacity:1;fill-rule:nonzero;stroke:none"
               d="M 0,0 -0.913,3.051 10.269,6.399 11.183,3.348 0,0 Z" />
          </g>
          <g
             transform="translate(35.9414,81.7529)"
             id="g3566">
            <path
               inkscape:connector-curvature="0"
               id="path3568"
               style="fill:#ffffff;fill-opacity:1;fill-rule:nonzero;stroke:none"
               d="m 0,0 -1.299,3.313 -8.309,-3.315 -1.23,3.14 8.307,3.314 -1.407,3.59 2.618,1.025 L 2.618,1.028 0,0 Z" />
          </g>
          <g
             transform="translate(46.6069,50.7412)"
             id="g3570">
            <path
               inkscape:connector-curvature="0"
               id="path3572"
               style="fill:#ffffff;fill-opacity:1;fill-rule:nonzero;stroke:none"
               d="m 0,0 c 0,0 0.791,-0.655 1.588,-0.021 0.837,0.665 3.178,2.559 3.178,2.559 0,0 0.603,0.777 0.044,1.498 C 4.251,4.759 3.174,6.06 3.174,6.06 c 0,0 -0.777,0.813 -1.482,0.25 C 0.987,5.746 -1.025,4.106 -1.553,3.685 -2.392,3.017 -1.636,2.021 -1.636,2.021 L 0,0 Z m 1.594,-3.545 c -1.468,-1.123 -3.137,1.029 -3.137,1.029 l -2.863,3.537 c 0,0 -1.795,2.266 -0.454,3.414 1.338,1.146 6.508,5.265 6.508,5.265 0,0 1.584,0.889 3.242,-1.16 1.457,-1.797 2.773,-3.43 2.773,-3.43 0,0 1.768,-2.232 0.44,-3.39 C 6.774,0.563 3.059,-2.42 1.594,-3.545" />
          </g>
          <g
             transform="translate(60.7246,42.333)"
             id="g3574">
            <path
               inkscape:connector-curvature="0"
               id="path3576"
               style="fill:#ffffff;fill-opacity:1;fill-rule:nonzero;stroke:none"
               d="M 0,0 -3.6,4.309 -4.896,3.227 -2.524,0.389 -4.446,-1.215 -6.818,1.62 -10.247,-1.247 -12.274,1.179 -3.316,8.665 2.311,1.931 0,0 Z" />
          </g>
          <g
             transform="translate(44.5786,70.3389)"
             id="g3578">
            <path
               inkscape:connector-curvature="0"
               id="path3580"
               style="fill:#ffffff;fill-opacity:1;fill-rule:nonzero;stroke:none"
               d="m 0,0 -7.862,0.597 -4.419,-2.287 -1.668,3.226 4.416,2.283 4.16,6.557 L -3.853,7.44 -6.429,3.36 -1.584,3.058 0,0 Z" />
          </g>
        </g>
      </g>
    </g>
  </g>
</svg>
